   <svg style="height: 28px" viewBox="0 0 34 25" fill="none"
                                                    xmlns="http://www.w3.org/2000/svg">
    <path
        d="M8.85 20.3125V20.8125H9.35H24.65H25.15V20.3125V19.1406C25.15 18.3545 24.7184 17.7147 24.1368 17.2213C23.5564 16.7289 22.7787 16.3379 21.9538 16.0346C20.303 15.4277 18.3319 15.125 17 15.125C15.6681 15.125 13.697 15.4277 12.0462 16.0346C11.2213 16.3379 10.4436 16.7289 9.86325 17.2213C9.2816 17.7147 8.85 18.3545 8.85 19.1406V20.3125ZM30.1 12.5C30.1 13.4757 30.5221 14.4019 31.2575 15.0778C31.8708 15.6416 32.6609 15.9943 33.5 16.0951V21.875C33.5 22.5569 33.2056 23.2204 32.6658 23.7166C32.1246 24.2141 31.3821 24.5 30.6 24.5H3.4C2.6179 24.5 1.87544 24.2141 1.33419 23.7166C0.794355 23.2204 0.5 22.5569 0.5 21.875V16.0953C2.39577 15.8686 3.9 14.3704 3.9 12.5C3.9 11.5243 3.47793 10.5981 2.74252 9.92216C2.12919 9.35844 1.33911 9.00566 0.5 8.90489V3.125C0.5 1.70718 1.76392 0.5 3.4 0.5H30.6C31.3821 0.5 32.1246 0.785948 32.6658 1.28342C33.2056 1.77959 33.5 2.44307 33.5 3.125V8.90489C32.6609 9.00566 31.8708 9.35844 31.2575 9.92216C30.5221 10.5981 30.1 11.5243 30.1 12.5ZM17 13.3906C18.1341 13.3906 19.2293 12.9769 20.043 12.229C20.8582 11.4799 21.325 10.4543 21.325 9.375C21.325 8.29573 20.8582 7.27014 20.043 6.52095C19.2293 5.77306 18.1341 5.35938 17 5.35938C15.8659 5.35938 14.7707 5.77306 13.957 6.52095C13.1418 7.27014 12.675 8.29573 12.675 9.375C12.675 10.4543 13.1418 11.4799 13.957 12.229C14.7707 12.9769 15.8659 13.3906 17 13.3906Z"
        fill="#1A1A1A" />
    <path
        d="M8.85 20.3125V20.8125H9.35H24.65H25.15V20.3125V19.1406C25.15 18.3545 24.7184 17.7147 24.1368 17.2213C23.5564 16.7289 22.7787 16.3379 21.9538 16.0346C20.303 15.4277 18.3319 15.125 17 15.125C15.6681 15.125 13.697 15.4277 12.0462 16.0346C11.2213 16.3379 10.4436 16.7289 9.86325 17.2213C9.2816 17.7147 8.85 18.3545 8.85 19.1406V20.3125ZM30.1 12.5C30.1 13.4757 30.5221 14.4019 31.2575 15.0778C31.8708 15.6416 32.6609 15.9943 33.5 16.0951V21.875C33.5 22.5569 33.2056 23.2204 32.6658 23.7166C32.1246 24.2141 31.3821 24.5 30.6 24.5H3.4C2.6179 24.5 1.87544 24.2141 1.33419 23.7166C0.794355 23.2204 0.5 22.5569 0.5 21.875V16.0953C2.39577 15.8686 3.9 14.3704 3.9 12.5C3.9 11.5243 3.47793 10.5981 2.74252 9.92216C2.12919 9.35844 1.33911 9.00566 0.5 8.90489V3.125C0.5 1.70718 1.76392 0.5 3.4 0.5H30.6C31.3821 0.5 32.1246 0.785948 32.6658 1.28342C33.2056 1.77959 33.5 2.44307 33.5 3.125V8.90489C32.6609 9.00566 31.8708 9.35844 31.2575 9.92216C30.5221 10.5981 30.1 11.5243 30.1 12.5ZM17 13.3906C18.1341 13.3906 19.2293 12.9769 20.043 12.229C20.8582 11.4799 21.325 10.4543 21.325 9.375C21.325 8.29573 20.8582 7.27014 20.043 6.52095C19.2293 5.77306 18.1341 5.35938 17 5.35938C15.8659 5.35938 14.7707 5.77306 13.957 6.52095C13.1418 7.27014 12.675 8.29573 12.675 9.375C12.675 10.4543 13.1418 11.4799 13.957 12.229C14.7707 12.9769 15.8659 13.3906 17 13.3906Z"
        fill="url(#paint0_radial_624_193)" />
    <path
        d="M8.85 20.3125V20.8125H9.35H24.65H25.15V20.3125V19.1406C25.15 18.3545 24.7184 17.7147 24.1368 17.2213C23.5564 16.7289 22.7787 16.3379 21.9538 16.0346C20.303 15.4277 18.3319 15.125 17 15.125C15.6681 15.125 13.697 15.4277 12.0462 16.0346C11.2213 16.3379 10.4436 16.7289 9.86325 17.2213C9.2816 17.7147 8.85 18.3545 8.85 19.1406V20.3125ZM30.1 12.5C30.1 13.4757 30.5221 14.4019 31.2575 15.0778C31.8708 15.6416 32.6609 15.9943 33.5 16.0951V21.875C33.5 22.5569 33.2056 23.2204 32.6658 23.7166C32.1246 24.2141 31.3821 24.5 30.6 24.5H3.4C2.6179 24.5 1.87544 24.2141 1.33419 23.7166C0.794355 23.2204 0.5 22.5569 0.5 21.875V16.0953C2.39577 15.8686 3.9 14.3704 3.9 12.5C3.9 11.5243 3.47793 10.5981 2.74252 9.92216C2.12919 9.35844 1.33911 9.00566 0.5 8.90489V3.125C0.5 1.70718 1.76392 0.5 3.4 0.5H30.6C31.3821 0.5 32.1246 0.785948 32.6658 1.28342C33.2056 1.77959 33.5 2.44307 33.5 3.125V8.90489C32.6609 9.00566 31.8708 9.35844 31.2575 9.92216C30.5221 10.5981 30.1 11.5243 30.1 12.5ZM17 13.3906C18.1341 13.3906 19.2293 12.9769 20.043 12.229C20.8582 11.4799 21.325 10.4543 21.325 9.375C21.325 8.29573 20.8582 7.27014 20.043 6.52095C19.2293 5.77306 18.1341 5.35938 17 5.35938C15.8659 5.35938 14.7707 5.77306 13.957 6.52095C13.1418 7.27014 12.675 8.29573 12.675 9.375C12.675 10.4543 13.1418 11.4799 13.957 12.229C14.7707 12.9769 15.8659 13.3906 17 13.3906Z"
        stroke="black" />
    <path
        d="M8.85 20.3125V20.8125H9.35H24.65H25.15V20.3125V19.1406C25.15 18.3545 24.7184 17.7147 24.1368 17.2213C23.5564 16.7289 22.7787 16.3379 21.9538 16.0346C20.303 15.4277 18.3319 15.125 17 15.125C15.6681 15.125 13.697 15.4277 12.0462 16.0346C11.2213 16.3379 10.4436 16.7289 9.86325 17.2213C9.2816 17.7147 8.85 18.3545 8.85 19.1406V20.3125ZM30.1 12.5C30.1 13.4757 30.5221 14.4019 31.2575 15.0778C31.8708 15.6416 32.6609 15.9943 33.5 16.0951V21.875C33.5 22.5569 33.2056 23.2204 32.6658 23.7166C32.1246 24.2141 31.3821 24.5 30.6 24.5H3.4C2.6179 24.5 1.87544 24.2141 1.33419 23.7166C0.794355 23.2204 0.5 22.5569 0.5 21.875V16.0953C2.39577 15.8686 3.9 14.3704 3.9 12.5C3.9 11.5243 3.47793 10.5981 2.74252 9.92216C2.12919 9.35844 1.33911 9.00566 0.5 8.90489V3.125C0.5 1.70718 1.76392 0.5 3.4 0.5H30.6C31.3821 0.5 32.1246 0.785948 32.6658 1.28342C33.2056 1.77959 33.5 2.44307 33.5 3.125V8.90489C32.6609 9.00566 31.8708 9.35844 31.2575 9.92216C30.5221 10.5981 30.1 11.5243 30.1 12.5ZM17 13.3906C18.1341 13.3906 19.2293 12.9769 20.043 12.229C20.8582 11.4799 21.325 10.4543 21.325 9.375C21.325 8.29573 20.8582 7.27014 20.043 6.52095C19.2293 5.77306 18.1341 5.35938 17 5.35938C15.8659 5.35938 14.7707 5.77306 13.957 6.52095C13.1418 7.27014 12.675 8.29573 12.675 9.375C12.675 10.4543 13.1418 11.4799 13.957 12.229C14.7707 12.9769 15.8659 13.3906 17 13.3906Z"
        stroke="url(#paint1_radial_624_193)" />
    <defs>
        <radialGradient id="paint0_radial_624_193" cx="0" cy="0" r="1"
            gradientUnits="userSpaceOnUse"
            gradientTransform="translate(26.4866 7.70833) rotate(16.2265) scale(27.5855 34.3393)">
            <stop stop-color="#121B67" />
            <stop offset="0.635422" stop-color="#ED4055" />
            <stop offset="0.96845" stop-color="#EDD62C" />
            <stop offset="0.96855" stop-color="#EDDA2B" />
            <stop offset="0.96865" stop-color="#EDDE2A" />
            <stop offset="0.96875" stop-color="#EDE229" />
            <stop offset="0.9992" stop-color="#615E11" />
            <stop offset="0.9993" stop-color="#EDE927" />
            <stop offset="0.9994" stop-color="#EDEB27" />
            <stop offset="0.9995" stop-color="#EDEC26" />
            <stop offset="0.9996" stop-color="#EDEE26" />
            <stop offset="0.9997" stop-color="#EDF224" />
            <stop offset="0.9998" stop-color="#EDF623" />
            <stop offset="0.9999" stop-color="#EDFB22" />
            <stop offset="1" stop-color="#EDFF21" />
            <stop offset="1" stop-color="#EDFF21" />
            <stop offset="1" stop-color="#EDFF21" />
            <stop offset="1" stop-color="#EDFF21" />
            <stop offset="1" stop-color="#EDFF21" />
            <stop offset="1" stop-color="#EDFF21" />
        </radialGradient>
        <radialGradient id="paint1_radial_624_193" cx="0" cy="0" r="1"
            gradientUnits="userSpaceOnUse"
            gradientTransform="translate(26.4866 7.70833) rotate(16.2265) scale(27.5855 34.3393)">
            <stop stop-color="#121B67" />
            <stop offset="0.635422" stop-color="#ED4055" />
            <stop offset="0.96845" stop-color="#EDD62C" />
            <stop offset="0.96855" stop-color="#EDDA2B" />
            <stop offset="0.96865" stop-color="#EDDE2A" />
            <stop offset="0.96875" stop-color="#EDE229" />
            <stop offset="0.9992" stop-color="#615E11" />
            <stop offset="0.9993" stop-color="#EDE927" />
            <stop offset="0.9994" stop-color="#EDEB27" />
            <stop offset="0.9995" stop-color="#EDEC26" />
            <stop offset="0.9996" stop-color="#EDEE26" />
            <stop offset="0.9997" stop-color="#EDF224" />
            <stop offset="0.9998" stop-color="#EDF623" />
            <stop offset="0.9999" stop-color="#EDFB22" />
            <stop offset="1" stop-color="#EDFF21" />
            <stop offset="1" stop-color="#EDFF21" />
            <stop offset="1" stop-color="#EDFF21" />
            <stop offset="1" stop-color="#EDFF21" />
            <stop offset="1" stop-color="#EDFF21" />
            <stop offset="1" stop-color="#EDFF21" />
        </radialGradient>
    </defs>
</svg>